<?xml version="1.0" encoding="UTF-8" standalone="no"?><!DOCTYPE svg PUBLIC "-//W3C//DTD SVG 1.1//EN" "http://www.w3.org/Graphics/SVG/1.1/DTD/svg11.dtd"><svg width="100%" height="100%" viewBox="0 0 20 70" version="1.1" xmlns="http://www.w3.org/2000/svg" xmlns:xlink="http://www.w3.org/1999/xlink" xml:space="preserve" xmlns:serif="http://www.serif.com/" style="fill-rule:evenodd;clip-rule:evenodd;stroke-linejoin:round;stroke-miterlimit:1.41421;"><clipPath id="_clip1"><polygon id="logowhite" points="3.748,61.449 3.748,8.551 16.252,8.551 16.252,61.449 3.748,61.449 "/></clipPath><g clip-path="url(#_clip1)"><g id="White"><path d="M13.352,40.946l-5.669,0l4.385,2.519l0,0.398l-4.385,2.519l5.669,0l0,0.678l-6.904,0l0,-0.7l4.726,-2.693l-4.726,-2.713l0,-0.69l6.904,0l0,0.682Z" style="fill-rule:nonzero;"/><path d="M13.4,35.755c0.006,0.457 -0.096,0.909 -0.296,1.319c-0.192,0.391 -0.459,0.74 -0.787,1.026c-0.331,0.288 -0.712,0.512 -1.124,0.662c-0.413,0.154 -0.851,0.233 -1.293,0.233c-0.452,0.001 -0.901,-0.083 -1.322,-0.248c-0.411,-0.159 -0.79,-0.391 -1.118,-0.686c-0.323,-0.29 -0.585,-0.641 -0.773,-1.032c-0.192,-0.401 -0.29,-0.84 -0.286,-1.284c-0.005,-0.457 0.1,-0.909 0.306,-1.317c0.198,-0.39 0.47,-0.737 0.802,-1.021c0.333,-0.283 0.713,-0.506 1.124,-0.657c0.408,-0.153 0.84,-0.232 1.277,-0.233c0.452,-0.001 0.901,0.083 1.322,0.248c0.409,0.157 0.786,0.387 1.113,0.679c0.321,0.289 0.583,0.639 0.769,1.03c0.191,0.4 0.289,0.838 0.286,1.281Zm-3.5,2.557c0.369,0.001 0.736,-0.062 1.084,-0.185c0.337,-0.118 0.65,-0.296 0.923,-0.525c0.266,-0.223 0.485,-0.498 0.642,-0.808c0.161,-0.322 0.243,-0.679 0.238,-1.04c0.005,-0.368 -0.082,-0.733 -0.253,-1.06c-0.163,-0.311 -0.388,-0.585 -0.661,-0.807c-0.276,-0.222 -0.589,-0.394 -0.924,-0.509c-0.691,-0.243 -1.445,-0.239 -2.134,0.01c-0.335,0.12 -0.647,0.299 -0.918,0.53c-0.264,0.224 -0.481,0.498 -0.637,0.807c-0.161,0.319 -0.243,0.673 -0.238,1.03c-0.005,0.369 0.08,0.733 0.248,1.06c0.16,0.312 0.384,0.587 0.656,0.808c0.276,0.221 0.589,0.394 0.924,0.508c0.337,0.119 0.692,0.18 1.05,0.181l0,0Z" style="fill-rule:nonzero;"/><path d="M13.4,28.453c0.005,0.457 -0.096,0.908 -0.297,1.318c-0.191,0.391 -0.459,0.74 -0.787,1.026c-0.331,0.287 -0.712,0.511 -1.123,0.661c-0.414,0.155 -0.852,0.234 -1.294,0.234c-0.452,0.001 -0.901,-0.083 -1.322,-0.248c-0.411,-0.16 -0.79,-0.392 -1.118,-0.686c-0.322,-0.29 -0.584,-0.641 -0.772,-1.032c-0.192,-0.401 -0.29,-0.84 -0.286,-1.284c-0.006,-0.457 0.099,-0.908 0.305,-1.317c0.197,-0.39 0.47,-0.737 0.802,-1.021c0.333,-0.283 0.713,-0.505 1.123,-0.656c0.409,-0.153 0.842,-0.232 1.279,-0.233c0.452,-0.001 0.901,0.083 1.322,0.248c0.409,0.158 0.786,0.387 1.113,0.679c0.321,0.288 0.582,0.637 0.768,1.026c0.193,0.401 0.291,0.84 0.287,1.285Zm-3.5,2.558c0.369,0 0.736,-0.062 1.084,-0.186c0.337,-0.117 0.65,-0.295 0.923,-0.525c0.266,-0.223 0.485,-0.498 0.642,-0.807c0.161,-0.323 0.243,-0.68 0.238,-1.04c0.005,-0.369 -0.082,-0.733 -0.253,-1.06c-0.163,-0.311 -0.388,-0.586 -0.661,-0.807c-0.276,-0.222 -0.589,-0.394 -0.924,-0.509c-0.691,-0.243 -1.445,-0.24 -2.134,0.009c-0.335,0.121 -0.646,0.3 -0.918,0.531c-0.263,0.224 -0.48,0.498 -0.637,0.807c-0.161,0.319 -0.242,0.673 -0.238,1.03c-0.005,0.369 0.08,0.732 0.248,1.06c0.161,0.312 0.384,0.587 0.657,0.807c0.276,0.222 0.588,0.395 0.923,0.509c0.337,0.119 0.692,0.18 1.05,0.18l0,0.001Z" style="fill-rule:nonzero;"/><path d="M13.352,23.932l-6.904,0l0,-2.343c0,-0.551 0.091,-1.032 0.273,-1.444c0.168,-0.393 0.42,-0.745 0.739,-1.03c0.318,-0.28 0.69,-0.491 1.093,-0.622c0.432,-0.141 0.883,-0.212 1.337,-0.209c0.485,-0.007 0.967,0.072 1.425,0.233c0.405,0.144 0.776,0.371 1.089,0.666c0.304,0.293 0.543,0.648 0.699,1.04c0.171,0.435 0.256,0.899 0.249,1.367l0,2.342Zm-3.462,-4.968c-0.387,-0.004 -0.773,0.055 -1.142,0.175c-0.331,0.107 -0.637,0.28 -0.899,0.509c-0.255,0.226 -0.456,0.507 -0.589,0.821c-0.145,0.355 -0.216,0.735 -0.209,1.118l0,1.665l5.698,0l0,-1.663c0.007,-0.388 -0.067,-0.773 -0.219,-1.131c-0.137,-0.315 -0.343,-0.595 -0.602,-0.821c-0.266,-0.225 -0.573,-0.396 -0.905,-0.501c-0.366,-0.117 -0.748,-0.175 -1.133,-0.173l0,0.001Z" style="fill-rule:nonzero;"/><path d="M13.352,16.98l-6.904,0l0,-0.678l6.904,0l0,0.678Z" style="fill-rule:nonzero;"/><path d="M13.4,11.788c0.006,0.457 -0.096,0.908 -0.296,1.318c-0.192,0.391 -0.459,0.74 -0.787,1.026c-0.331,0.288 -0.712,0.512 -1.124,0.662c-0.413,0.154 -0.851,0.234 -1.293,0.234c-0.452,0.002 -0.901,-0.082 -1.322,-0.248c-0.411,-0.159 -0.79,-0.391 -1.118,-0.685c-0.323,-0.291 -0.585,-0.642 -0.773,-1.033c-0.192,-0.4 -0.29,-0.839 -0.286,-1.283c-0.005,-0.458 0.1,-0.91 0.306,-1.318c0.198,-0.39 0.47,-0.737 0.802,-1.021c0.333,-0.283 0.713,-0.505 1.124,-0.656c0.408,-0.154 0.84,-0.233 1.277,-0.233c0.452,-0.001 0.901,0.083 1.322,0.248c0.409,0.157 0.786,0.387 1.113,0.678c0.321,0.29 0.582,0.639 0.769,1.029c0.192,0.4 0.29,0.839 0.286,1.282Zm-3.5,2.558c0.369,0.001 0.736,-0.062 1.084,-0.185c0.337,-0.118 0.65,-0.296 0.923,-0.525c0.266,-0.224 0.485,-0.498 0.642,-0.808c0.161,-0.322 0.243,-0.679 0.238,-1.04c0.005,-0.369 -0.082,-0.733 -0.253,-1.06c-0.163,-0.311 -0.388,-0.586 -0.661,-0.807c-0.276,-0.222 -0.589,-0.394 -0.924,-0.509c-0.691,-0.243 -1.445,-0.239 -2.134,0.01c-0.335,0.12 -0.647,0.299 -0.918,0.53c-0.264,0.224 -0.481,0.498 -0.637,0.807c-0.161,0.319 -0.243,0.673 -0.238,1.03c-0.005,0.369 0.08,0.732 0.248,1.06c0.16,0.312 0.384,0.587 0.656,0.808c0.276,0.221 0.589,0.394 0.924,0.508c0.337,0.119 0.692,0.18 1.05,0.181Z" style="fill-rule:nonzero;"/><path d="M13.352,40.946l-5.669,0l4.385,2.519l0,0.398l-4.385,2.519l5.669,0l0,0.678l-6.904,0l0,-0.7l4.726,-2.693l-4.726,-2.713l0,-0.69l6.904,0l0,0.682Z" style="fill:#fff;fill-rule:nonzero;"/><path d="M13.4,35.755c0.006,0.457 -0.096,0.909 -0.296,1.319c-0.192,0.391 -0.459,0.74 -0.787,1.026c-0.331,0.288 -0.712,0.512 -1.124,0.662c-0.413,0.154 -0.851,0.233 -1.293,0.233c-0.452,0.001 -0.901,-0.083 -1.322,-0.248c-0.411,-0.159 -0.79,-0.391 -1.118,-0.686c-0.323,-0.29 -0.585,-0.641 -0.773,-1.032c-0.192,-0.401 -0.29,-0.84 -0.286,-1.284c-0.005,-0.457 0.1,-0.909 0.306,-1.317c0.198,-0.39 0.47,-0.737 0.802,-1.021c0.333,-0.283 0.713,-0.506 1.124,-0.657c0.408,-0.153 0.84,-0.232 1.277,-0.233c0.452,-0.001 0.901,0.083 1.322,0.248c0.409,0.157 0.786,0.387 1.113,0.679c0.321,0.289 0.583,0.639 0.769,1.03c0.191,0.4 0.289,0.838 0.286,1.281Zm-3.5,2.557c0.369,0.001 0.736,-0.062 1.084,-0.185c0.337,-0.118 0.65,-0.296 0.923,-0.525c0.266,-0.223 0.485,-0.498 0.642,-0.808c0.161,-0.322 0.243,-0.679 0.238,-1.04c0.005,-0.368 -0.082,-0.733 -0.253,-1.06c-0.163,-0.311 -0.388,-0.585 -0.661,-0.807c-0.276,-0.222 -0.589,-0.394 -0.924,-0.509c-0.691,-0.243 -1.445,-0.239 -2.134,0.01c-0.335,0.12 -0.647,0.299 -0.918,0.53c-0.264,0.224 -0.481,0.498 -0.637,0.807c-0.161,0.319 -0.243,0.673 -0.238,1.03c-0.005,0.369 0.08,0.733 0.248,1.06c0.16,0.312 0.384,0.587 0.656,0.808c0.276,0.221 0.589,0.394 0.924,0.508c0.337,0.119 0.692,0.18 1.05,0.181l0,0Z" style="fill:#fff;fill-rule:nonzero;"/><path d="M13.4,28.453c0.005,0.457 -0.096,0.908 -0.297,1.318c-0.191,0.391 -0.459,0.74 -0.787,1.026c-0.331,0.287 -0.712,0.511 -1.123,0.661c-0.414,0.155 -0.852,0.234 -1.294,0.234c-0.452,0.001 -0.901,-0.083 -1.322,-0.248c-0.411,-0.16 -0.79,-0.392 -1.118,-0.686c-0.322,-0.29 -0.584,-0.641 -0.772,-1.032c-0.192,-0.401 -0.29,-0.84 -0.286,-1.284c-0.006,-0.457 0.099,-0.908 0.305,-1.317c0.197,-0.39 0.47,-0.737 0.802,-1.021c0.333,-0.283 0.713,-0.505 1.123,-0.656c0.409,-0.153 0.842,-0.232 1.279,-0.233c0.452,-0.001 0.901,0.083 1.322,0.248c0.409,0.158 0.786,0.387 1.113,0.679c0.321,0.288 0.582,0.637 0.768,1.026c0.193,0.401 0.291,0.84 0.287,1.285Zm-3.5,2.558c0.369,0 0.736,-0.062 1.084,-0.186c0.337,-0.117 0.65,-0.295 0.923,-0.525c0.266,-0.223 0.485,-0.498 0.642,-0.807c0.161,-0.323 0.243,-0.68 0.238,-1.04c0.005,-0.369 -0.082,-0.733 -0.253,-1.06c-0.163,-0.311 -0.388,-0.586 -0.661,-0.807c-0.276,-0.222 -0.589,-0.394 -0.924,-0.509c-0.691,-0.243 -1.445,-0.24 -2.134,0.009c-0.335,0.121 -0.646,0.3 -0.918,0.531c-0.263,0.224 -0.48,0.498 -0.637,0.807c-0.161,0.319 -0.242,0.673 -0.238,1.03c-0.005,0.369 0.08,0.732 0.248,1.06c0.161,0.312 0.384,0.587 0.657,0.807c0.276,0.222 0.588,0.395 0.923,0.509c0.337,0.119 0.692,0.18 1.05,0.18l0,0.001Z" style="fill:#fff;fill-rule:nonzero;"/><path d="M13.352,23.932l-6.904,0l0,-2.343c0,-0.551 0.091,-1.032 0.273,-1.444c0.168,-0.393 0.42,-0.745 0.739,-1.03c0.318,-0.28 0.69,-0.491 1.093,-0.622c0.432,-0.141 0.883,-0.212 1.337,-0.209c0.485,-0.007 0.967,0.072 1.425,0.233c0.405,0.144 0.776,0.371 1.089,0.666c0.304,0.293 0.543,0.648 0.699,1.04c0.171,0.435 0.256,0.899 0.249,1.367l0,2.342Zm-3.462,-4.968c-0.387,-0.004 -0.773,0.055 -1.142,0.175c-0.331,0.107 -0.637,0.28 -0.899,0.509c-0.255,0.226 -0.456,0.507 -0.589,0.821c-0.145,0.355 -0.216,0.735 -0.209,1.118l0,1.665l5.698,0l0,-1.663c0.007,-0.388 -0.067,-0.773 -0.219,-1.131c-0.137,-0.315 -0.343,-0.595 -0.602,-0.821c-0.266,-0.225 -0.573,-0.396 -0.905,-0.501c-0.366,-0.117 -0.748,-0.175 -1.133,-0.173l0,0.001Z" style="fill:#fff;fill-rule:nonzero;"/><path d="M13.352,16.98l-6.904,0l0,-0.678l6.904,0l0,0.678Z" style="fill:#fff;fill-rule:nonzero;"/><path d="M13.4,11.788c0.006,0.457 -0.096,0.908 -0.296,1.318c-0.192,0.391 -0.459,0.74 -0.787,1.026c-0.331,0.288 -0.712,0.512 -1.124,0.662c-0.413,0.154 -0.851,0.234 -1.293,0.234c-0.452,0.002 -0.901,-0.082 -1.322,-0.248c-0.411,-0.159 -0.79,-0.391 -1.118,-0.685c-0.323,-0.291 -0.585,-0.642 -0.773,-1.033c-0.192,-0.4 -0.29,-0.839 -0.286,-1.283c-0.005,-0.458 0.1,-0.91 0.306,-1.318c0.198,-0.39 0.47,-0.737 0.802,-1.021c0.333,-0.283 0.713,-0.505 1.124,-0.656c0.408,-0.154 0.84,-0.233 1.277,-0.233c0.452,-0.001 0.901,0.083 1.322,0.248c0.409,0.157 0.786,0.387 1.113,0.678c0.321,0.29 0.582,0.639 0.769,1.029c0.192,0.4 0.29,0.839 0.286,1.282Zm-3.5,2.558c0.369,0.001 0.736,-0.062 1.084,-0.185c0.337,-0.118 0.65,-0.296 0.923,-0.525c0.266,-0.224 0.485,-0.498 0.642,-0.808c0.161,-0.322 0.243,-0.679 0.238,-1.04c0.005,-0.369 -0.082,-0.733 -0.253,-1.06c-0.163,-0.311 -0.388,-0.586 -0.661,-0.807c-0.276,-0.222 -0.589,-0.394 -0.924,-0.509c-0.691,-0.243 -1.445,-0.239 -2.134,0.01c-0.335,0.12 -0.647,0.299 -0.918,0.53c-0.264,0.224 -0.481,0.498 -0.637,0.807c-0.161,0.319 -0.243,0.673 -0.238,1.03c-0.005,0.369 0.08,0.732 0.248,1.06c0.16,0.312 0.384,0.587 0.656,0.808c0.276,0.221 0.589,0.394 0.924,0.508c0.337,0.119 0.692,0.18 1.05,0.181Z" style="fill:#fff;fill-rule:nonzero;"/><g><path d="M8.406,57.99l-1.312,-2.103l1.312,-2.194l-1.719,-2.622l-2.939,4.816l2.917,4.997l1.741,-2.894Z" style="fill:#fff;fill-rule:nonzero;"/><path d="M7.705,50.37l5.901,0.067l2.646,4.93l-3.279,0l-0.995,-2.216l-2.758,-0.068l-1.515,-2.713Z" style="fill:#fff;fill-rule:nonzero;"/><path d="M7.705,61.449l2.804,-4.884l5.743,0l-1.47,2.736l-2.532,0l-1.334,2.148l-3.211,0Z" style="fill:#fff;fill-rule:nonzero;"/></g></g></g></svg>