<?xml version="1.0" encoding="UTF-8" standalone="no"?><!DOCTYPE svg PUBLIC "-//W3C//DTD SVG 1.1//EN" "http://www.w3.org/Graphics/SVG/1.1/DTD/svg11.dtd"><svg width="100%" height="100%" viewBox="0 0 53 13" version="1.1" xmlns="http://www.w3.org/2000/svg" xmlns:xlink="http://www.w3.org/1999/xlink" xml:space="preserve" xmlns:serif="http://www.serif.com/" style="fill-rule:evenodd;clip-rule:evenodd;stroke-linejoin:round;stroke-miterlimit:2;"><path d="M20.503,9.604l0,-5.669l-2.519,4.385l-0.398,0l-2.519,-4.385l0,5.669l-0.678,0l0,-6.904l0.7,0l2.693,4.726l2.713,-4.726l0.69,0l0,6.904l-0.682,0Z" style="fill-rule:nonzero;"/><path d="M25.694,9.652c-0.457,0.006 -0.909,-0.096 -1.319,-0.296c-0.391,-0.192 -0.74,-0.459 -1.026,-0.787c-0.288,-0.331 -0.512,-0.712 -0.662,-1.124c-0.154,-0.413 -0.233,-0.851 -0.233,-1.293c-0.001,-0.452 0.083,-0.901 0.248,-1.322c0.159,-0.411 0.391,-0.79 0.686,-1.118c0.29,-0.323 0.641,-0.585 1.032,-0.773c0.401,-0.192 0.84,-0.29 1.284,-0.286c0.457,-0.005 0.909,0.1 1.317,0.306c0.39,0.198 0.737,0.47 1.021,0.802c0.283,0.333 0.506,0.713 0.657,1.124c0.153,0.408 0.232,0.84 0.233,1.277c0.001,0.452 -0.083,0.901 -0.248,1.322c-0.157,0.409 -0.387,0.786 -0.679,1.113c-0.289,0.321 -0.639,0.583 -1.03,0.769c-0.4,0.191 -0.838,0.289 -1.281,0.286Zm-2.557,-3.5c-0.001,0.369 0.062,0.736 0.185,1.084c0.118,0.337 0.296,0.65 0.525,0.923c0.223,0.266 0.498,0.485 0.808,0.642c0.322,0.161 0.679,0.243 1.04,0.238c0.368,0.005 0.733,-0.082 1.06,-0.253c0.311,-0.163 0.585,-0.388 0.807,-0.661c0.222,-0.276 0.394,-0.589 0.509,-0.924c0.243,-0.691 0.239,-1.445 -0.01,-2.134c-0.12,-0.335 -0.299,-0.647 -0.53,-0.918c-0.224,-0.264 -0.498,-0.481 -0.807,-0.637c-0.319,-0.161 -0.673,-0.243 -1.03,-0.238c-0.369,-0.005 -0.733,0.08 -1.06,0.248c-0.312,0.16 -0.587,0.384 -0.808,0.656c-0.221,0.276 -0.394,0.589 -0.508,0.924c-0.119,0.337 -0.18,0.692 -0.181,1.05Z" style="fill-rule:nonzero;"/><path d="M32.996,9.652c-0.457,0.005 -0.908,-0.096 -1.318,-0.297c-0.391,-0.191 -0.74,-0.459 -1.026,-0.787c-0.287,-0.331 -0.511,-0.712 -0.661,-1.123c-0.155,-0.414 -0.234,-0.852 -0.234,-1.294c-0.001,-0.452 0.083,-0.901 0.248,-1.322c0.16,-0.411 0.392,-0.79 0.686,-1.118c0.29,-0.322 0.641,-0.584 1.032,-0.772c0.401,-0.192 0.84,-0.29 1.284,-0.286c0.457,-0.006 0.908,0.099 1.317,0.305c0.39,0.197 0.737,0.47 1.021,0.802c0.283,0.333 0.505,0.713 0.656,1.123c0.153,0.409 0.232,0.842 0.233,1.279c0.001,0.452 -0.083,0.901 -0.248,1.322c-0.158,0.409 -0.387,0.786 -0.679,1.113c-0.288,0.321 -0.637,0.582 -1.026,0.768c-0.401,0.193 -0.84,0.291 -1.285,0.287Zm-2.558,-3.5c0,0.369 0.062,0.736 0.186,1.084c0.117,0.337 0.295,0.65 0.525,0.923c0.223,0.266 0.498,0.485 0.807,0.642c0.323,0.161 0.68,0.243 1.04,0.238c0.369,0.005 0.733,-0.082 1.06,-0.253c0.311,-0.163 0.586,-0.388 0.807,-0.661c0.222,-0.276 0.394,-0.589 0.509,-0.924c0.243,-0.691 0.24,-1.445 -0.009,-2.134c-0.121,-0.335 -0.3,-0.646 -0.531,-0.918c-0.224,-0.263 -0.498,-0.48 -0.807,-0.637c-0.319,-0.161 -0.673,-0.242 -1.03,-0.238c-0.369,-0.005 -0.732,0.08 -1.06,0.248c-0.312,0.161 -0.587,0.384 -0.807,0.657c-0.222,0.276 -0.395,0.588 -0.509,0.923c-0.119,0.337 -0.18,0.692 -0.18,1.05l-0.001,0Z" style="fill-rule:nonzero;"/><path d="M37.517,9.604l0,-6.904l2.343,0c0.551,0 1.032,0.091 1.444,0.273c0.393,0.168 0.745,0.42 1.03,0.739c0.28,0.318 0.491,0.69 0.622,1.093c0.141,0.432 0.212,0.883 0.209,1.337c0.007,0.485 -0.072,0.967 -0.233,1.425c-0.144,0.405 -0.371,0.776 -0.666,1.089c-0.293,0.304 -0.648,0.543 -1.04,0.699c-0.435,0.171 -0.899,0.256 -1.367,0.249l-2.342,0Zm4.968,-3.462c0.004,-0.387 -0.055,-0.773 -0.175,-1.142c-0.107,-0.331 -0.28,-0.637 -0.509,-0.899c-0.226,-0.255 -0.507,-0.456 -0.821,-0.589c-0.355,-0.145 -0.735,-0.216 -1.118,-0.209l-1.665,0l0,5.698l1.663,0c0.388,0.007 0.773,-0.067 1.131,-0.219c0.315,-0.137 0.595,-0.343 0.821,-0.602c0.225,-0.266 0.396,-0.573 0.501,-0.905c0.117,-0.366 0.175,-0.748 0.173,-1.133l-0.001,0Z" style="fill-rule:nonzero;"/><path d="M44.469,9.604l0,-6.904l0.678,0l0,6.904l-0.678,0Z" style="fill-rule:nonzero;"/><path d="M49.661,9.652c-0.457,0.006 -0.908,-0.096 -1.318,-0.296c-0.391,-0.192 -0.74,-0.459 -1.026,-0.787c-0.288,-0.331 -0.512,-0.712 -0.662,-1.124c-0.154,-0.413 -0.234,-0.851 -0.234,-1.293c-0.002,-0.452 0.082,-0.901 0.248,-1.322c0.159,-0.411 0.391,-0.79 0.685,-1.118c0.291,-0.323 0.642,-0.585 1.033,-0.773c0.4,-0.192 0.839,-0.29 1.283,-0.286c0.458,-0.005 0.91,0.1 1.318,0.306c0.39,0.198 0.737,0.47 1.021,0.802c0.283,0.333 0.505,0.713 0.656,1.124c0.154,0.408 0.233,0.84 0.233,1.277c0.001,0.452 -0.083,0.901 -0.248,1.322c-0.157,0.409 -0.387,0.786 -0.678,1.113c-0.29,0.321 -0.639,0.582 -1.029,0.769c-0.4,0.192 -0.839,0.29 -1.282,0.286Zm-2.558,-3.5c-0.001,0.369 0.062,0.736 0.185,1.084c0.118,0.337 0.296,0.65 0.525,0.923c0.224,0.266 0.498,0.485 0.808,0.642c0.322,0.161 0.679,0.243 1.04,0.238c0.369,0.005 0.733,-0.082 1.06,-0.253c0.311,-0.163 0.586,-0.388 0.807,-0.661c0.222,-0.276 0.394,-0.589 0.509,-0.924c0.243,-0.691 0.239,-1.445 -0.01,-2.134c-0.12,-0.335 -0.299,-0.647 -0.53,-0.918c-0.224,-0.264 -0.498,-0.481 -0.807,-0.637c-0.319,-0.161 -0.673,-0.243 -1.03,-0.238c-0.369,-0.005 -0.732,0.08 -1.06,0.248c-0.312,0.16 -0.587,0.384 -0.808,0.656c-0.221,0.276 -0.394,0.589 -0.508,0.924c-0.119,0.337 -0.18,0.692 -0.181,1.05Z" style="fill-rule:nonzero;"/><path d="M20.503,9.604l0,-5.669l-2.519,4.385l-0.398,0l-2.519,-4.385l0,5.669l-0.678,0l0,-6.904l0.7,0l2.693,4.726l2.713,-4.726l0.69,0l0,6.904l-0.682,0Z" style="fill:#fff;fill-rule:nonzero;"/><path d="M25.694,9.652c-0.457,0.006 -0.909,-0.096 -1.319,-0.296c-0.391,-0.192 -0.74,-0.459 -1.026,-0.787c-0.288,-0.331 -0.512,-0.712 -0.662,-1.124c-0.154,-0.413 -0.233,-0.851 -0.233,-1.293c-0.001,-0.452 0.083,-0.901 0.248,-1.322c0.159,-0.411 0.391,-0.79 0.686,-1.118c0.29,-0.323 0.641,-0.585 1.032,-0.773c0.401,-0.192 0.84,-0.29 1.284,-0.286c0.457,-0.005 0.909,0.1 1.317,0.306c0.39,0.198 0.737,0.47 1.021,0.802c0.283,0.333 0.506,0.713 0.657,1.124c0.153,0.408 0.232,0.84 0.233,1.277c0.001,0.452 -0.083,0.901 -0.248,1.322c-0.157,0.409 -0.387,0.786 -0.679,1.113c-0.289,0.321 -0.639,0.583 -1.03,0.769c-0.4,0.191 -0.838,0.289 -1.281,0.286Zm-2.557,-3.5c-0.001,0.369 0.062,0.736 0.185,1.084c0.118,0.337 0.296,0.65 0.525,0.923c0.223,0.266 0.498,0.485 0.808,0.642c0.322,0.161 0.679,0.243 1.04,0.238c0.368,0.005 0.733,-0.082 1.06,-0.253c0.311,-0.163 0.585,-0.388 0.807,-0.661c0.222,-0.276 0.394,-0.589 0.509,-0.924c0.243,-0.691 0.239,-1.445 -0.01,-2.134c-0.12,-0.335 -0.299,-0.647 -0.53,-0.918c-0.224,-0.264 -0.498,-0.481 -0.807,-0.637c-0.319,-0.161 -0.673,-0.243 -1.03,-0.238c-0.369,-0.005 -0.733,0.08 -1.06,0.248c-0.312,0.16 -0.587,0.384 -0.808,0.656c-0.221,0.276 -0.394,0.589 -0.508,0.924c-0.119,0.337 -0.18,0.692 -0.181,1.05Z" style="fill:#fff;fill-rule:nonzero;"/><path d="M32.996,9.652c-0.457,0.005 -0.908,-0.096 -1.318,-0.297c-0.391,-0.191 -0.74,-0.459 -1.026,-0.787c-0.287,-0.331 -0.511,-0.712 -0.661,-1.123c-0.155,-0.414 -0.234,-0.852 -0.234,-1.294c-0.001,-0.452 0.083,-0.901 0.248,-1.322c0.16,-0.411 0.392,-0.79 0.686,-1.118c0.29,-0.322 0.641,-0.584 1.032,-0.772c0.401,-0.192 0.84,-0.29 1.284,-0.286c0.457,-0.006 0.908,0.099 1.317,0.305c0.39,0.197 0.737,0.47 1.021,0.802c0.283,0.333 0.505,0.713 0.656,1.123c0.153,0.409 0.232,0.842 0.233,1.279c0.001,0.452 -0.083,0.901 -0.248,1.322c-0.158,0.409 -0.387,0.786 -0.679,1.113c-0.288,0.321 -0.637,0.582 -1.026,0.768c-0.401,0.193 -0.84,0.291 -1.285,0.287Zm-2.558,-3.5c0,0.369 0.062,0.736 0.186,1.084c0.117,0.337 0.295,0.65 0.525,0.923c0.223,0.266 0.498,0.485 0.807,0.642c0.323,0.161 0.68,0.243 1.04,0.238c0.369,0.005 0.733,-0.082 1.06,-0.253c0.311,-0.163 0.586,-0.388 0.807,-0.661c0.222,-0.276 0.394,-0.589 0.509,-0.924c0.243,-0.691 0.24,-1.445 -0.009,-2.134c-0.121,-0.335 -0.3,-0.646 -0.531,-0.918c-0.224,-0.263 -0.498,-0.48 -0.807,-0.637c-0.319,-0.161 -0.673,-0.242 -1.03,-0.238c-0.369,-0.005 -0.732,0.08 -1.06,0.248c-0.312,0.161 -0.587,0.384 -0.807,0.657c-0.222,0.276 -0.395,0.588 -0.509,0.923c-0.119,0.337 -0.18,0.692 -0.18,1.05l-0.001,0Z" style="fill:#fff;fill-rule:nonzero;"/><path d="M37.517,9.604l0,-6.904l2.343,0c0.551,0 1.032,0.091 1.444,0.273c0.393,0.168 0.745,0.42 1.03,0.739c0.28,0.318 0.491,0.69 0.622,1.093c0.141,0.432 0.212,0.883 0.209,1.337c0.007,0.485 -0.072,0.967 -0.233,1.425c-0.144,0.405 -0.371,0.776 -0.666,1.089c-0.293,0.304 -0.648,0.543 -1.04,0.699c-0.435,0.171 -0.899,0.256 -1.367,0.249l-2.342,0Zm4.968,-3.462c0.004,-0.387 -0.055,-0.773 -0.175,-1.142c-0.107,-0.331 -0.28,-0.637 -0.509,-0.899c-0.226,-0.255 -0.507,-0.456 -0.821,-0.589c-0.355,-0.145 -0.735,-0.216 -1.118,-0.209l-1.665,0l0,5.698l1.663,0c0.388,0.007 0.773,-0.067 1.131,-0.219c0.315,-0.137 0.595,-0.343 0.821,-0.602c0.225,-0.266 0.396,-0.573 0.501,-0.905c0.117,-0.366 0.175,-0.748 0.173,-1.133l-0.001,0Z" style="fill:#fff;fill-rule:nonzero;"/><path d="M44.469,9.604l0,-6.904l0.678,0l0,6.904l-0.678,0Z" style="fill:#fff;fill-rule:nonzero;"/><path d="M49.661,9.652c-0.457,0.006 -0.908,-0.096 -1.318,-0.296c-0.391,-0.192 -0.74,-0.459 -1.026,-0.787c-0.288,-0.331 -0.512,-0.712 -0.662,-1.124c-0.154,-0.413 -0.234,-0.851 -0.234,-1.293c-0.002,-0.452 0.082,-0.901 0.248,-1.322c0.159,-0.411 0.391,-0.79 0.685,-1.118c0.291,-0.323 0.642,-0.585 1.033,-0.773c0.4,-0.192 0.839,-0.29 1.283,-0.286c0.458,-0.005 0.91,0.1 1.318,0.306c0.39,0.198 0.737,0.47 1.021,0.802c0.283,0.333 0.505,0.713 0.656,1.124c0.154,0.408 0.233,0.84 0.233,1.277c0.001,0.452 -0.083,0.901 -0.248,1.322c-0.157,0.409 -0.387,0.786 -0.678,1.113c-0.29,0.321 -0.639,0.582 -1.029,0.769c-0.4,0.192 -0.839,0.29 -1.282,0.286Zm-2.558,-3.5c-0.001,0.369 0.062,0.736 0.185,1.084c0.118,0.337 0.296,0.65 0.525,0.923c0.224,0.266 0.498,0.485 0.808,0.642c0.322,0.161 0.679,0.243 1.04,0.238c0.369,0.005 0.733,-0.082 1.06,-0.253c0.311,-0.163 0.586,-0.388 0.807,-0.661c0.222,-0.276 0.394,-0.589 0.509,-0.924c0.243,-0.691 0.239,-1.445 -0.01,-2.134c-0.12,-0.335 -0.299,-0.647 -0.53,-0.918c-0.224,-0.264 -0.498,-0.481 -0.807,-0.637c-0.319,-0.161 -0.673,-0.243 -1.03,-0.238c-0.369,-0.005 -0.732,0.08 -1.06,0.248c-0.312,0.16 -0.587,0.384 -0.808,0.656c-0.221,0.276 -0.394,0.589 -0.508,0.924c-0.119,0.337 -0.18,0.692 -0.181,1.05Z" style="fill:#fff;fill-rule:nonzero;"/><g><path d="M3.459,4.658l2.103,-1.312l2.194,1.312l2.622,-1.719l-4.816,-2.939l-4.997,2.917l2.894,1.741Z" style="fill:#fff;fill-rule:nonzero;"/><path d="M11.079,3.957l-0.067,5.901l-4.93,2.646l0,-3.279l2.216,-0.995l0.068,-2.758l2.713,-1.515Z" style="fill:#fff;fill-rule:nonzero;"/><path d="M0,3.957l4.884,2.804l0,5.743l-2.736,-1.47l0,-2.532l-2.148,-1.334l0,-3.211Z" style="fill:#fff;fill-rule:nonzero;"/></g></svg>