<?xml version="1.0" encoding="UTF-8" standalone="no"?><!DOCTYPE svg PUBLIC "-//W3C//DTD SVG 1.1//EN" "http://www.w3.org/Graphics/SVG/1.1/DTD/svg11.dtd"><svg width="100%" height="100%" viewBox="0 0 70 22" version="1.1" xmlns="http://www.w3.org/2000/svg" xmlns:xlink="http://www.w3.org/1999/xlink" xml:space="preserve" xmlns:serif="http://www.serif.com/" style="fill-rule:evenodd;clip-rule:evenodd;stroke-linejoin:round;stroke-miterlimit:1.41421;"><g><path d="M0,7.185l0,-1.934l4.691,0l0.132,1.572c0.381,-0.572 0.859,-1.013 1.434,-1.324c0.575,-0.312 1.239,-0.467 1.994,-0.467c0.761,0 1.413,0.168 1.955,0.505c0.542,0.337 0.952,0.846 1.231,1.527c0.366,-0.637 0.842,-1.135 1.428,-1.494c0.586,-0.359 1.274,-0.538 2.065,-0.538c1.172,0 2.097,0.404 2.774,1.214c0.678,0.809 1.017,2.041 1.017,3.697l0,4.943l1.549,0.33l0,1.923l-6.142,0l0,-1.923l1.385,-0.33l0,-4.954c0,-0.901 -0.147,-1.527 -0.44,-1.879c-0.293,-0.352 -0.729,-0.527 -1.307,-0.527c-0.454,0 -0.848,0.1 -1.181,0.302c-0.333,0.201 -0.599,0.481 -0.797,0.84c0,0.139 0.004,0.258 0.011,0.357c0.008,0.099 0.011,0.2 0.011,0.302l0,5.559l1.297,0.33l0,1.923l-5.79,0l0,-1.923l1.296,-0.33l0,-4.954c0,-0.879 -0.146,-1.5 -0.439,-1.863c-0.293,-0.362 -0.733,-0.543 -1.319,-0.543c-0.432,0 -0.811,0.082 -1.137,0.247c-0.326,0.165 -0.595,0.397 -0.807,0.697l0,6.416l1.384,0.33l0,1.923l-6.13,0l0,-1.923l1.549,-0.33l0,-7.371l-1.714,-0.33Z" style="fill:#fafafa;fill-rule:nonzero;"/><path d="M29.619,15.634c-0.381,0.556 -0.851,0.985 -1.412,1.285c-0.56,0.3 -1.199,0.45 -1.917,0.45c-1.252,0 -2.234,-0.401 -2.944,-1.203c-0.711,-0.802 -1.066,-2.049 -1.066,-3.74l0,-4.911l-1.307,-0.33l0,-1.934l4.515,0l0,7.197c0,0.864 0.145,1.484 0.434,1.862c0.29,0.377 0.72,0.565 1.291,0.565c0.506,0 0.943,-0.082 1.313,-0.247c0.37,-0.164 0.672,-0.401 0.906,-0.708l0,-6.405l-1.406,-0.33l0,-1.934l4.614,0l0,9.635l1.44,0.33l0,1.923l-4.252,0l-0.209,-1.505Z" style="fill:#fafafa;fill-rule:nonzero;"/><path d="M35.002,1.934l0,-1.934l4.922,0l0,14.886l1.549,0.33l0,1.923l-6.306,0l0,-1.923l1.549,-0.33l0,-12.623l-1.714,-0.329Z" style="fill:#fafafa;fill-rule:nonzero;"/><path d="M47.23,17.578c0,1.392 -0.37,2.467 -1.109,3.225c-0.74,0.758 -1.766,1.137 -3.077,1.137c-0.3,0 -0.573,-0.015 -0.818,-0.044c-0.245,-0.03 -0.5,-0.077 -0.764,-0.143l0.154,-2.45c0.161,0.044 0.326,0.077 0.495,0.099c0.168,0.022 0.351,0.033 0.549,0.033c0.432,0 0.767,-0.152 1.005,-0.456c0.238,-0.304 0.357,-0.771 0.357,-1.401l0,-10.063l-1.714,-0.33l0,-1.934l4.922,0l0,12.327Zm-0.066,-15.194l-3.208,0l0,-2.384l3.208,0l0,2.384Z" style="fill:#fafafa;fill-rule:nonzero;"/><path d="M48.999,15.216l1.549,-0.33l0,-7.371l-1.714,-0.33l0,-1.934l4.922,0l0,9.635l1.538,0.33l0,1.923l-6.295,0l0,-1.923Zm4.757,-12.81l-3.208,0l0,-2.406l3.208,0l0,2.406Z" style="fill:#fafafa;fill-rule:nonzero;"/><path d="M56.173,15.216l1.538,-0.33l0,-7.371l-1.703,-0.33l0,-1.934l4.691,0l0.143,1.703c0.396,-0.608 0.883,-1.08 1.461,-1.417c0.579,-0.337 1.227,-0.505 1.945,-0.505c1.201,0 2.139,0.377 2.813,1.131c0.673,0.755 1.01,1.938 1.01,3.549l0,5.174l1.538,0.33l0,1.923l-6.13,0l0,-1.923l1.373,-0.33l0,-5.163c0,-0.798 -0.161,-1.364 -0.483,-1.697c-0.322,-0.334 -0.809,-0.5 -1.461,-0.5c-0.425,0 -0.806,0.086 -1.143,0.258c-0.337,0.172 -0.619,0.415 -0.846,0.73l0,6.372l1.297,0.33l0,1.923l-6.043,0l0,-1.923Z" style="fill:#fafafa;fill-rule:nonzero;"/></g></svg>